<svg width="185" height="55" viewBox="0 0 185 55" fill="none" xmlns="http://www.w3.org/2000/svg">
<path d="M55.2042 1.10269H60.6628V9.00621H69.1141V1.10269H74.5803V20.4868H69.1141V13.0428H60.6628V20.4868H55.2042V1.10269Z" fill="#C9D2E5"/>
<path d="M94.025 20.4868L92.5897 17.0582H83.543L82.0772 20.4868H76.4659L85.4516 1.10269H91.0629L99.8729 20.4868H94.025ZM85.1844 13.1842H90.9789L88.1084 6.27038L85.1844 13.1842Z" fill="#C9D2E5"/>
<path d="M113.882 5.78274C113.034 5.33585 112.079 5.0928 111.103 5.07581C110.091 5.05803 109.094 5.30292 108.225 5.78274C107.359 6.2736 106.652 6.97218 106.179 7.80457C105.687 8.6903 105.431 9.6718 105.431 10.6677C105.431 11.6635 105.687 12.645 106.179 13.5307C106.65 14.3624 107.357 15.0591 108.225 15.5455C109.094 16.0253 110.091 16.2702 111.103 16.2524C112.036 16.2339 112.953 16.0264 113.79 15.6445C114.728 15.2346 115.579 14.6719 116.302 13.9832L119.493 17.2068C118.344 18.324 116.969 19.2221 115.447 19.8507C113.834 20.5455 112.067 20.8775 110.289 20.8197C108.511 20.762 106.773 20.3161 105.217 19.5185C103.574 18.6616 102.213 17.4083 101.278 15.8919C100.312 14.3281 99.8168 12.5535 99.8424 10.7525C99.8137 8.98289 100.309 7.23987 101.276 5.71302C102.242 4.18616 103.642 2.93394 105.324 2.09255C107.08 1.21785 109.048 0.772572 111.042 0.79886C112.619 0.806624 114.178 1.11212 115.623 1.69667C117.064 2.25857 118.364 3.09147 119.44 4.14266L116.279 7.67732C115.626 6.90274 114.811 6.25832 113.882 5.78274V5.78274Z" fill="#C9D2E5"/>
<path d="M141.946 20.4868H135.411L129.914 12.965L127.288 15.6726V20.4868H121.822V1.10269H127.288V9.50813L135.144 1.10269H141.473L133.709 9.09104L141.946 20.4868Z" fill="#C9D2E5"/>
<path d="M55.1201 35.2407H60.5863V54.6248H55.1201V35.2407Z" fill="#C9D2E5"/>
<path d="M64.6478 35.2407H70.0987V50.3125H78.9698V54.6248H64.6478V35.2407Z" fill="#C9D2E5"/>
<path d="M83.1307 35.2407H88.5969V50.3125H97.4681V54.6248H83.1307V35.2407Z" fill="#C9D2E5"/>
<path d="M100.514 35.2407H105.98V54.6248H100.514V35.2407Z" fill="#C9D2E5"/>
<path d="M124.906 35.2407H129.983V54.6248H125.204L115.714 43.0452V54.6248H110.607V35.2407H115.416L124.937 46.898L124.906 35.2407Z" fill="#C9D2E5"/>
<path d="M150.397 36.2374C152.069 37.0572 153.472 38.278 154.459 39.7721C155.45 41.3096 155.96 43.0717 155.932 44.862C155.963 46.651 155.463 48.4136 154.487 49.9579C153.511 51.5022 152.097 52.7692 150.397 53.6209C148.628 54.52 146.636 54.978 144.618 54.9499C142.602 54.9759 140.612 54.5232 138.839 53.635C137.151 52.7972 135.746 51.5449 134.777 50.0155C133.786 48.4548 133.277 46.6723 133.304 44.862C133.279 43.0953 133.78 41.3563 134.75 39.8352C135.721 38.3141 137.125 37.0695 138.808 36.2374C140.595 35.3826 142.576 34.9365 144.587 34.9365C146.598 34.9365 148.58 35.3826 150.367 36.2374H150.397ZM141.793 39.97C140.906 40.471 140.181 41.1841 139.694 42.0343C139.178 42.9197 138.915 43.9126 138.93 44.9185C138.904 45.9369 139.168 46.9436 139.694 47.8382C140.187 48.6858 140.911 49.3997 141.793 49.9095C142.651 50.4136 143.648 50.6786 144.664 50.673C145.673 50.6794 146.662 50.4141 147.511 49.9095C148.383 49.4035 149.091 48.6875 149.557 47.8382C150.049 46.9386 150.305 45.9445 150.305 44.9362C150.305 43.928 150.049 42.9339 149.557 42.0343C149.09 41.1869 148.383 40.4733 147.511 39.97C146.653 39.4918 145.666 39.2468 144.664 39.2631C143.655 39.2496 142.662 39.4942 141.793 39.97Z" fill="#C9D2E5"/>
<path d="M158.383 35.2407H163.849V54.6248H158.383V35.2407Z" fill="#C9D2E5"/>
<path d="M178.507 39.5813C177.486 39.2393 176.415 39.0438 175.331 39.0016C174.775 38.9755 174.221 39.0956 173.735 39.348C173.549 39.4526 173.396 39.6015 173.293 39.7793C173.189 39.9571 173.139 40.1572 173.148 40.359C173.146 40.5604 173.191 40.7598 173.279 40.9439C173.367 41.128 173.497 41.2925 173.659 41.4264C174.023 41.7348 174.448 41.9749 174.911 42.1334C175.407 42.3101 176.148 42.5363 177.125 42.8403C178.35 43.1553 179.551 43.5449 180.721 44.0067C181.682 44.4003 182.52 45.0132 183.156 45.7882C183.87 46.6973 184.228 47.8043 184.172 48.927C184.205 50.1103 183.816 51.2706 183.065 52.2284C182.281 53.1724 181.221 53.8887 180.011 54.2926C178.643 54.7724 177.191 55.0122 175.728 54.9996C173.961 54.9962 172.207 54.7117 170.544 54.1583C168.917 53.6475 167.403 52.8666 166.078 51.8537L168.201 47.8949C169.312 48.7927 170.579 49.5098 171.949 50.0157C173.15 50.5218 174.447 50.8052 175.766 50.8499C176.44 50.8812 177.109 50.7367 177.698 50.4328C177.921 50.3067 178.105 50.1274 178.228 49.9135C178.352 49.6997 178.411 49.4591 178.4 49.2168C178.407 49.0072 178.363 48.7989 178.272 48.607C178.181 48.415 178.044 48.2442 177.873 48.1069C177.491 47.7922 177.045 47.5518 176.56 47.4C176.033 47.2233 175.293 47.0183 174.339 46.7779C173.126 46.4809 171.937 46.1053 170.781 45.6539C169.842 45.2723 169.016 44.6852 168.376 43.9431C167.67 43.0607 167.317 41.9789 167.376 40.8821C167.352 39.7469 167.721 38.6345 168.43 37.708C169.165 36.7535 170.183 36.0169 171.361 35.5871C172.762 35.084 174.257 34.8437 175.759 34.8802C177.275 34.8802 178.784 35.0802 180.24 35.474C181.612 35.8274 182.92 36.3632 184.126 37.0646L182.065 41.1012C180.94 40.4792 179.748 39.9697 178.507 39.5813V39.5813Z" fill="#C9D2E5"/>
<path d="M11.421 22.0563H28.4762V12.0674H39.7445V0H7.56566L0 12.0674H11.421V22.0563Z" fill="#C9D2E5"/>
<path d="M28.4762 32.5968H11.421V42.5858H0V54.6531H32.4766L39.7445 42.5858H28.4762V32.5968Z" fill="#C9D2E5"/>
</svg>